<svg xmlns="http://www.w3.org/2000/svg" class="icon" viewBox="0 0 1024 1024">
  <path fill="#FBE946" d="M65.2 511.7c0 247 200.3 447.3 447.4 447.3s447.3-200.3 447.3-447.3S759.6 64.3 512.6 64.3 65.2 264.6 65.2 511.7z"/>
  <path fill="#FBAC1F" d="M139.3 512.7c0 206.1 167.1 373.3 373.3 373.3s373.3-167.1 373.3-373.3-167.2-373.3-373.3-373.3-373.3 167.1-373.3 373.3z"/>
  <path fill="#FBCE27" d="M513.6 294.7c-5.6 0-10.5 2.8-13.3 8.4l-58 118.1c-2.1 4.2-6.3 7.7-11.2 8.4l-130 18.9c-12.6 2.1-17.5 16.8-8.4 25.9l94.4 91.6c3.5 3.5 4.9 8.4 4.2 13.3l-22.4 129.3c-2.1 12.6 10.5 21.7 21.7 16.1l116-60.8c2.1-1.4 4.9-1.4 7-1.4V294.7z"/>
  <path fill="#FAE845" d="M513.6 294.7c5.6 0 10.5 2.8 13.3 8.4l58 118.1c2.1 4.2 6.3 7.7 11.2 8.4l130 18.9c12.6 2.1 17.5 16.8 8.4 25.9L640.8 566c-3.5 3.5-4.9 8.4-4.2 13.3L659 708.5c2.1 12.6-10.5 21.7-21.7 16.1l-116.7-60.8c-2.1-1.4-4.9-1.4-7-1.4V294.7z"/>
</svg>
