<svg xmlns="http://www.w3.org/2000/svg" class="icon" viewBox="0 0 1024 1024">
  <path fill="#E64A19" d="M327.805 0h-174.83l249.757 449.561H577.56z"/>
  <path fill="#FF754C" d="M677.463 0 427.707 449.561h174.83L852.293 0z"/>
  <path fill="#C93D18" d="m577.561 449.561-1.698-3.272-1.674 3.272zM473.363 260.695l-86.016 160.419 27.897 54.472 86.99-160.669z"/>
  <path fill="#FFBA57" d="M202.927 724.293a299.707 299.707 0 1 0 599.414 0 299.707 299.707 0 1 0-599.414 0Z"/>
  <path fill="#FFE082" d="M502.634 474.537c-137.89 0-249.756 111.84-249.756 249.756 0 137.89 111.866 249.756 249.756 249.756S752.39 862.183 752.39 724.293c0-137.916-111.866-249.756-249.756-249.756zm74.927 174.829H527.61V799.22h49.951v49.95H427.707v-49.95h49.952V649.366h-49.952v-49.951h149.854v49.95z"/>
</svg>
