<svg xmlns="http://www.w3.org/2000/svg" class="icon" data-spm-anchor-id="a313x.7781069.0.i3" viewBox="0 0 1024 1024">
  <path fill="#e6e6e6" d="M875.2 223.9H148.8c-29.3 0-53 23.7-53 53v.8c0 29.3 23.7 53 53 53h726.3c29.3 0 53-23.7 53-53v-.8c0-29.3-23.7-53-52.9-53zM704.4 458.7H148.8c-29.3 0-53 23.7-53 53v.8c0 29.3 23.7 53 53 53h555.6c29.3 0 53-23.7 53-53v-.8c0-29.3-23.7-53-53-53z" class="selected" data-spm-anchor-id="a313x.7781069.0.i5"/>
  <path fill="#e6e6e6" d="M148.8 693.4h448.9c29.3 0 53 23.7 53 53v.8c0 29.3-23.7 53-53 53H148.8c-29.3 0-53-23.7-53-53v-.8c.1-29.3 23.8-53 53-53z" class="selected" data-spm-anchor-id="a313x.7781069.0.i4"/>
</svg>
