<svg xmlns="http://www.w3.org/2000/svg" class="icon" viewBox="0 0 1024 1024">
  <path fill="#C74066" d="m66.47 853.231 5.34-684.51c1.44-59.26 50.65-106.13 109.91-104.68 16.33.4 32.35 4.52 46.85 12.05l671.14 344.26c51.53 25.64 72.51 88.2 46.87 139.73a104.184 104.184 0 0 1-46.87 46.87l-676.49 340.69c-52.21 27.55-116.86 7.56-144.41-44.65a106.715 106.715 0 0 1-12.35-49.71l.01-.05z"/>
  <path fill="#AA2B52" d="m69.14 513.861-2.67 339.36c.32 59.03 48.43 106.63 107.46 106.3a106.87 106.87 0 0 0 48.41-11.88l676.49-340.69c35.63-17.34 58.26-53.47 58.34-93.09H69.14z"/>
</svg>
