<svg xmlns="http://www.w3.org/2000/svg" class="icon" viewBox="0 0 1024 1024">
  <path fill="#6DD143" d="M64.01 777.448v-531.64c.03-20.65 16.8-37.36 37.45-37.33a37.5 37.5 0 0 1 20.13 5.92l418.36 268.06c17.45 11.04 22.64 34.14 11.6 51.59a37.41 37.41 0 0 1-11.6 11.59l-418.36 263.96c-17.38 11.15-40.51 6.11-51.66-11.26-4-6.23-6.06-13.5-5.92-20.89z"/>
  <path fill="#61B23B" d="m539.94 482.088-102.07-65.43v192.54l101.69-64.3c17.41-11.1 22.53-34.21 11.43-51.63a37.278 37.278 0 0 0-11.05-11.18z"/>
  <path fill="#C3FF08" d="M466.66 777.448v-531.64c.03-20.65 16.8-37.36 37.45-37.33a37.5 37.5 0 0 1 20.13 5.92l418.36 268.06c17.45 11.04 22.64 34.14 11.6 51.59a37.41 37.41 0 0 1-11.6 11.59l-418.36 263.96c-17.38 11.15-40.51 6.11-51.66-11.26a37.517 37.517 0 0 1-5.92-20.89z"/>
</svg>
