<svg xmlns="http://www.w3.org/2000/svg" class="icon" viewBox="0 0 1024 1024">
  <path fill="#495057" d="M371 701.46H79.1a16 16 0 0 1-16-18.14l24.34-186.74A129.4 129.4 0 0 1 215.88 384 129.4 129.4 0 0 1 344.3 496.56z"/>
  <path fill="#F9BF87" d="M205.18 700.16h21.3A123.84 123.84 0 0 1 350.32 824H81.46v-.12a123.72 123.72 0 0 1 123.72-123.72z"/>
  <path fill="#F9BF87" d="M257.26 656.28v45.16a41.12 41.12 0 0 1-25.08 37.84l-.3.12a41.28 41.28 0 0 1-32.34 0 41.12 41.12 0 0 1-25.02-37.82v-45.3zM114.7 544.6H189v53.66h-74.3a26.9 26.9 0 0 1-26.92-26.88 26.86 26.86 0 0 1 26.92-26.78zm202.92 0h-74.84v53.66h74.84a26.9 26.9 0 0 0 26.92-26.88 26.86 26.86 0 0 0-26.92-26.78z"/>
  <path fill="#FFCC90" d="M215.78 443.46h.22q103.3 0 103.3 103.3v51.4q0 103.3-103.3 103.3h-.22q-103.3 0-103.3-103.3v-51.4q0-103.3 103.3-103.3Z"/>
  <path fill="#495057" d="M319.28 500.92v42a28.32 28.32 0 0 0-28.36-28.32H141.7a29.2 29.2 0 0 0-29.24 29.18.86.86 0 0 1-.86.86h-8.62a.86.86 0 0 1-.86-.86v-42.84a62.72 62.72 0 0 1 62.78-62.66h91.62a62.7 62.7 0 0 1 62.76 62.64z"/>
  <path fill="#FFCC90" d="M236.56 474.32v40.24h25.92l-25.92-40.24z"/>
  <path fill="#FF6B6B" d="M350.3 824H81.46v-.24a123.42 123.42 0 0 1 55.28-102.94c-.1 1.6-.14 3.22-.14 4.86a79.28 79.28 0 0 0 158.56 0c0-1.58 0-3.16-.14-4.72A123.6 123.6 0 0 1 350.3 824z"/>
  <path fill="#495057" d="M164 578.8a13.46 13.44 0 1 0 26.92 0 13.46 13.44 0 1 0-26.92 0ZM240.86 578.8a13.46 13.44 0 1 0 26.92 0 13.46 13.44 0 1 0-26.92 0ZM215.88 659.6a33.8 33.8 0 0 1-28.52-15.6 6 6 0 1 1 10-6.5 22 22 0 0 0 36.9 0 6 6 0 1 1 10 6.5 33.8 33.8 0 0 1-28.38 15.6zm726.44-81.8H711.68l-14-62A127.58 127.58 0 0 1 825 388a127.58 127.58 0 0 1 127.28 127.86z"/>
  <path fill="#20C997" d="M961 824H689a108.76 108.76 0 0 1 108.8-109.3h54.4A108.76 108.76 0 0 1 961 824z"/>
  <path fill="#F9BF87" d="M722.34 541.48h75.18v54.64h-75.18a27.3 27.3 0 0 1-27.24-27.36 27.26 27.26 0 0 1 27.24-27.28zm205.32 0H852v54.64h75.72a27.3 27.3 0 0 0 27.24-27.36 27.26 27.26 0 0 0-27.3-27.28zm-144.5 134.68h83.7v41.7a41.84 41.84 0 0 1-41.84 41.84 41.84 41.84 0 0 1-41.84-41.84v-41.7z"/>
  <path fill="#FFCC90" d="M795.1 479.46h59.82a74.7 74.7 0 0 1 74.7 74.7v45.1a102.8 102.8 0 0 1-102.8 102.8h-3.44a103 103 0 0 1-103-103v-44.9a74.7 74.7 0 0 1 74.7-74.7z"/>
  <path fill="#495057" d="M824.1 706.22h-1.18a71.42 71.42 0 0 1-71.26-71.58 24.9 24.9 0 0 1 24.84-24.96h94a24.9 24.9 0 0 1 24.84 24.96 71.42 71.42 0 0 1-71.24 71.58z"/>
  <path fill="#FFF" d="M853.36 630a2.72 2.72 0 0 1 2.72 2.92 33.22 33.22 0 0 1-1.68 8 32.24 32.24 0 0 1-15.68 18.22c-.44.22-.88.44-1.32.64a33.22 33.22 0 0 1-27.76 0l-1.52-.76a32.16 32.16 0 0 1-15.46-18.1 32.78 32.78 0 0 1-1.7-8 2.72 2.72 0 0 1 2.72-2.92z"/>
  <path fill="#495057" d="M771.28 566.4a14.02 13.96 90 1 0 27.92 0 14.02 13.96 90 1 0-27.92 0ZM847.82 566.4a14.02 13.96 90 1 0 27.92 0 14.02 13.96 90 1 0-27.92 0Z"/>
  <path fill="#9775FA" d="M769 786.44V846a19.88 19.88 0 0 1-19.86 20H292.86A19.88 19.88 0 0 1 273 846v-59.56A164.8 164.8 0 0 1 384.78 630.3a169.66 169.66 0 0 1 17.5-4.82 162.98 162.98 0 0 1 21.14-3.18q6.86-.58 13.9-.58H604.7q7.02 0 13.88.58a164.88 164.88 0 0 1 22.42 3.44 160.88 160.88 0 0 1 16 4.48 164.72 164.72 0 0 1 112 156.22z"/>
  <path fill="#845EF7" d="M618.58 622.28a97.58 97.58 0 0 1-195.14 0q6.86-.58 13.9-.58h167.38q7 0 13.86.58z"/>
  <path fill="#F9BF87" d="M459.38 558.92h123.24v62a61.52 61.52 0 0 1-61.52 61.52 61.72 61.72 0 0 1-61.72-61.72v-61.8zM370.32 362h109.22v79.24H370.32a39.62 39.62 0 0 1-39.58-39.68A39.58 39.58 0 0 1 370.32 362zm298.3 0h-110v79.24h110a39.62 39.62 0 0 0 39.58-39.68A39.58 39.58 0 0 0 668.62 362z"/>
  <path fill="#495057" d="M402 219.84h77.24v154.72H368.4a29.34 29.34 0 0 1-29.34-29.34V282.9A63.04 63.04 0 0 1 402 219.84zm271.32 154.72H562.38V219.84h77.24a63.04 63.04 0 0 1 63.04 63.04v62.32a29.34 29.34 0 0 1-29.34 29.36z"/>
  <path fill="#495057" d="M388.86 298.76v-40.24A100.52 100.52 0 0 1 489.38 158h197.58a8 8 0 0 1 8 8v32.3a100.52 100.52 0 0 1-100.52 100.52H388.86z"/>
  <path fill="#FFCC90" d="M477.28 287.68h87.42a108.86 108.86 0 0 1 108.86 108.86v44.5A152.58 152.58 0 0 1 521 593.6a152.58 152.58 0 0 1-152.58-152.58v-44.48a108.86 108.86 0 0 1 108.86-108.86z"/>
  <path fill="#495057" d="M478.3 446.34h-54.7A26.44 26.44 0 0 1 397.2 420v-20a26.44 26.44 0 0 1 26.4-26.4h54.72a26.44 26.44 0 0 1 26.4 26.4v20a26.44 26.44 0 0 1-26.42 26.34zm-54.7-60.68a14.42 14.42 0 0 0-14.4 14.4V420a14.42 14.42 0 0 0 14.4 14.4h54.72a14.42 14.42 0 0 0 14.4-14.4v-20a14.42 14.42 0 0 0-14.4-14.4zm194.8 60.68h-54.7a26.44 26.44 0 0 1-26.4-26.4V400a26.44 26.44 0 0 1 26.4-26.4h54.7a26.44 26.44 0 0 1 26.4 26.4v20a26.44 26.44 0 0 1-26.4 26.34zm-54.72-60.68a14.42 14.42 0 0 0-14.4 14.4V420a14.42 14.42 0 0 0 14.4 14.4h54.72a14.42 14.42 0 0 0 14.4-14.4v-20a14.42 14.42 0 0 0-14.4-14.4z"/>
  <path fill="#495057" d="M498.72 403.86h44.58v12h-44.58zM437.3 410a13.68 13.66 90 1 0 27.32 0 13.68 13.66 90 1 0-27.32 0ZM577.38 410a13.68 13.66 90 1 0 27.32 0 13.68 13.66 90 1 0-27.32 0ZM521 542.88a59.48 59.48 0 0 1-50.28-27.54 6 6 0 1 1 10.1-6.48 47.66 47.66 0 0 0 80.34 0 6 6 0 1 1 10.1 6.48A59.48 59.48 0 0 1 521 542.88z"/>
</svg>
